<?xml version="1.0" encoding="UTF-8" standalone="no"?>
<svg
   xmlns="http://www.w3.org/2000/svg"
   width="1235"
   height="650"
   viewBox="0 0 1235 650"
   version="1.1">
  <rect
     width="1235"
     height="650"
     fill="#bf0a30" />
  <rect
     width="1235"
     height="50"
     y="50"
     fill="white" />
  <rect
     width="1235"
     height="50"
     y="150"
     fill="white" />
  <rect
     width="1235"
     height="50"
     y="250"
     fill="white" />
  <rect
     width="1235"
     height="50"
     y="350"
     fill="white" />
  <rect
     width="1235"
     height="50"
     y="450"
     fill="white" />
  <rect
     width="1235"
     height="50"
     y="550"
     fill="white" />
  <rect
     width="494"
     height="350"
     fill="#002868" />
  <!-- Stars -->
  <!-- Row 1 -->
  <g fill="white">
    <!-- Row 1 -->
    <g transform="translate(41.25,25)">
      <polygon points="0,0 19.2,59 -31.5,-19.1 31.5,-19.1 -19.2,59"/>
      <polygon transform="translate(82.5,0)" points="0,0 19.2,59 -31.5,-19.1 31.5,-19.1 -19.2,59"/>
      <polygon transform="translate(165,0)" points="0,0 19.2,59 -31.5,-19.1 31.5,-19.1 -19.2,59"/>
      <polygon transform="translate(247.5,0)" points="0,0 19.2,59 -31.5,-19.1 31.5,-19.1 -19.2,59"/>
      <polygon transform="translate(330,0)" points="0,0 19.2,59 -31.5,-19.1 31.5,-19.1 -19.2,59"/>
      <polygon transform="translate(412.5,0)" points="0,0 19.2,59 -31.5,-19.1 31.5,-19.1 -19.2,59"/>
    </g>
    <!-- Row 2 -->
    <g transform="translate(82.5,70)">
      <polygon points="0,0 19.2,59 -31.5,-19.1 31.5,-19.1 -19.2,59"/>
      <polygon transform="translate(82.5,0)" points="0,0 19.2,59 -31.5,-19.1 31.5,-19.1 -19.2,59"/>
      <polygon transform="translate(165,0)" points="0,0 19.2,59 -31.5,-19.1 31.5,-19.1 -19.2,59"/>
      <polygon transform="translate(247.5,0)" points="0,0 19.2,59 -31.5,-19.1 31.5,-19.1 -19.2,59"/>
      <polygon transform="translate(330,0)" points="0,0 19.2,59 -31.5,-19.1 31.5,-19.1 -19.2,59"/>
    </g>
    <!-- Row 3 -->
    <g transform="translate(41.25,140)">
      <polygon points="0,0 19.2,59 -31.5,-19.1 31.5,-19.1 -19.2,59"/>
      <polygon transform="translate(82.5,0)" points="0,0 19.2,59 -31.5,-19.1 31.5,-19.1 -19.2,59"/>
      <polygon transform="translate(165,0)" points="0,0 19.2,59 -31.5,-19.1 31.5,-19.1 -19.2,59"/>
      <polygon transform="translate(247.5,0)" points="0,0 19.2,59 -31.5,-19.1 31.5,-19.1 -19.2,59"/>
      <polygon transform="translate(330,0)" points="0,0 19.2,59 -31.5,-19.1 31.5,-19.1 -19.2,59"/>
      <polygon transform="translate(412.5,0)" points="0,0 19.2,59 -31.5,-19.1 31.5,-19.1 -19.2,59"/>
    </g>
    <!-- Row 4 -->
    <g transform="translate(82.5,210)">
      <polygon points="0,0 19.2,59 -31.5,-19.1 31.5,-19.1 -19.2,59"/>
      <polygon transform="translate(82.5,0)" points="0,0 19.2,59 -31.5,-19.1 31.5,-19.1 -19.2,59"/>
      <polygon transform="translate(165,0)" points="0,0 19.2,59 -31.5,-19.1 31.5,-19.1 -19.2,59"/>
      <polygon transform="translate(247.5,0)" points="0,0 19.2,59 -31.5,-19.1 31.5,-19.1 -19.2,59"/>
      <polygon transform="translate(330,0)" points="0,0 19.2,59 -31.5,-19.1 31.5,-19.1 -19.2,59"/>
    </g>
    <!-- Row 5 -->
    <g transform="translate(41.25,280)">
      <polygon points="0,0 19.2,59 -31.5,-19.1 31.5,-19.1 -19.2,59"/>
      <polygon transform="translate(82.5,0)" points="0,0 19.2,59 -31.5,-19.1 31.5,-19.1 -19.2,59"/>
      <polygon transform="translate(165,0)" points="0,0 19.2,59 -31.5,-19.1 31.5,-19.1 -19.2,59"/>
      <polygon transform="translate(247.5,0)" points="0,0 19.2,59 -31.5,-19.1 31.5,-19.1 -19.2,59"/>
      <polygon transform="translate(330,0)" points="0,0 19.2,59 -31.5,-19.1 31.5,-19.1 -19.2,59"/>
      <polygon transform="translate(412.5,0)" points="0,0 19.2,59 -31.5,-19.1 31.5,-19.1 -19.2,59"/>
    </g>
  </g>
</svg>