<?xml version="1.0" encoding="UTF-8" standalone="no"?>
<svg
   xmlns="http://www.w3.org/2000/svg"
   width="100"
   height="53"
   viewBox="0 0 100 53"
   version="1.1">
  <rect
     width="100"
     height="53"
     fill="#bf0a30" />
  <rect
     width="100"
     height="4.07"
     y="4.07"
     fill="white" />
  <rect
     width="100"
     height="4.07"
     y="12.21"
     fill="white" />
  <rect
     width="100"
     height="4.07"
     y="20.35"
     fill="white" />
  <rect
     width="100"
     height="4.07"
     y="28.49"
     fill="white" />
  <rect
     width="100"
     height="4.07"
     y="36.63"
     fill="white" />
  <rect
     width="100"
     height="4.07"
     y="44.77"
     fill="white" />
  <rect
     width="40"
     height="28.49"
     fill="#002868" />
  <g fill="white">
    <circle cx="5" cy="5" r="1.5"/>
    <circle cx="15" cy="5" r="1.5"/>
    <circle cx="25" cy="5" r="1.5"/>
    <circle cx="35" cy="5" r="1.5"/>
    <circle cx="10" cy="10" r="1.5"/>
    <circle cx="20" cy="10" r="1.5"/>
    <circle cx="30" cy="10" r="1.5"/>
    <circle cx="5" cy="15" r="1.5"/>
    <circle cx="15" cy="15" r="1.5"/>
    <circle cx="25" cy="15" r="1.5"/>
    <circle cx="35" cy="15" r="1.5"/>
    <circle cx="10" cy="20" r="1.5"/>
    <circle cx="20" cy="20" r="1.5"/>
    <circle cx="30" cy="20" r="1.5"/>
    <circle cx="5" cy="25" r="1.5"/>
    <circle cx="15" cy="25" r="1.5"/>
    <circle cx="25" cy="25" r="1.5"/>
    <circle cx="35" cy="25" r="1.5"/>
  </g>
</svg>